<?xml version="1.0" standalone="no"?>
<!DOCTYPE svg PUBLIC "-//W3C//DTD SVG 20010904//EN"
 "http://www.w3.org/TR/2001/REC-SVG-20010904/DTD/svg10.dtd">
<svg version="1.0" xmlns="http://www.w3.org/2000/svg"
 width="512.000000pt" height="512.000000pt" viewBox="0 0 512.000000 512.000000"
 preserveAspectRatio="xMidYMid meet">

<g transform="translate(0.000000,512.000000) scale(0.100000,-0.100000)"
fill="#ffffff" stroke="none">
<path d="M2365 5114 c-285 -29 -528 -86 -753 -175 -146 -58 -440 -215 -470
-251 -24 -30 -24 -65 1 -93 35 -42 68 -37 172 27 392 240 870 363 1335 345
188 -8 322 -27 500 -71 848 -211 1531 -892 1745 -1741 55 -219 69 -342 69
-595 0 -253 -14 -376 -69 -595 -213 -846 -894 -1527 -1740 -1740 -219 -55
-342 -69 -595 -69 -255 0 -368 13 -593 69 -851 214 -1532 896 -1743 1745 -178
718 -26 1460 419 2050 40 52 134 158 209 236 118 121 138 145 138 172 0 40
-31 72 -70 72 -36 0 -121 -73 -248 -213 -358 -394 -575 -862 -654 -1412 -17
-119 -17 -511 1 -635 105 -762 511 -1409 1146 -1826 609 -400 1377 -517 2090
-317 929 260 1646 1043 1819 1987 156 845 -103 1682 -705 2285 -398 397 -880
639 -1449 726 -101 15 -468 28 -555 19z"/>
<path d="M2270 4765 c-247 -35 -461 -100 -685 -210 -249 -122 -459 -275 -640
-467 -130 -139 -205 -242 -205 -283 0 -52 19 -83 69 -113 25 -16 854 -495
1842 -1065 1967 -1136 1840 -1068 1907 -1012 54 45 151 330 193 565 27 147 37
471 20 620 -89 775 -565 1438 -1272 1774 -200 95 -423 160 -659 192 -131 17
-441 17 -570 -1z m530 -145 c390 -49 746 -198 1050 -440 103 -83 285 -268 362
-370 139 -184 238 -372 312 -591 76 -226 106 -411 106 -659 0 -168 -10 -269
-41 -425 -23 -116 -110 -381 -124 -378 -13 2 -1397 802 -1410 814 -5 5 191 9
516 9 575 0 552 -2 584 60 13 24 15 99 15 475 0 401 -2 450 -17 475 -30 52
-65 62 -190 58 -107 -3 -114 -4 -140 -30 -18 -18 -38 -62 -59 -125 l-32 -98
-147 -5 c-139 -5 -148 -6 -166 -29 -26 -32 -24 -67 6 -96 l24 -25 286 0 285 0
0 -255 0 -255 -624 0 -624 0 -436 253 -437 252 631 5 632 5 19 24 c26 32 24
67 -6 96 l-24 25 -761 0 -760 0 -298 172 c-163 94 -325 187 -359 207 -35 19
-63 38 -63 42 0 16 107 137 204 233 318 310 727 511 1166 571 117 16 407 19
520 5z m1220 -1175 l0 -55 -66 0 c-53 0 -65 3 -61 14 3 8 11 32 18 55 12 41
13 41 61 41 l48 0 0 -55z"/>
<path d="M556 3498 c-65 -65 -169 -404 -201 -651 -19 -152 -19 -423 0 -573 64
-486 286 -934 635 -1284 331 -331 735 -540 1210 -625 126 -23 463 -31 601 -16
147 17 323 56 464 102 131 43 332 135 354 163 22 27 18 76 -8 98 -34 27 -58
23 -163 -26 -283 -132 -570 -196 -886 -196 -248 0 -432 29 -661 105 -608 203
-1104 699 -1306 1309 -76 226 -105 411 -105 658 0 184 19 341 59 499 35 136
94 305 107 302 8 -1 583 -331 594 -340 3 -2 -17 -70 -45 -149 -27 -80 -48
-160 -48 -179 2 -63 48 -107 126 -120 47 -8 77 -36 77 -74 0 -15 -72 -260
-160 -544 -109 -352 -160 -530 -160 -562 0 -61 31 -119 82 -152 l42 -28 360 0
361 0 54 30 c52 29 99 80 124 135 8 16 12 98 12 232 l0 207 68 130 c37 72 67
137 67 146 0 13 29 15 208 15 196 0 210 2 266 25 52 21 62 22 85 10 33 -17
1435 -826 1440 -831 14 -13 -173 -220 -284 -314 -144 -121 -148 -126 -141
-163 7 -37 39 -67 71 -67 35 0 137 81 275 220 157 157 250 277 250 325 0 75
-1 76 -315 257 -803 463 -2602 1502 -2945 1701 -445 257 -445 257 -490 257
-34 0 -48 -6 -74 -32z m1134 -728 c157 -90 292 -169 300 -177 12 -11 0 -13
-78 -13 -73 0 -101 -4 -132 -20 -73 -37 -81 -56 -205 -494 -63 -225 -115 -423
-115 -440 1 -66 61 -152 123 -175 16 -6 98 -11 183 -11 85 0 154 -4 154 -8 0
-5 -14 -21 -31 -38 l-30 -29 -312 -3 c-172 -2 -322 0 -334 3 -16 4 -23 13 -23
29 0 14 70 251 157 528 160 515 176 583 153 653 -17 51 -88 121 -139 136 -23
7 -41 17 -41 24 0 13 55 180 65 195 4 6 9 9 13 7 4 -2 135 -77 292 -167z m711
-411 c88 -50 159 -92 159 -95 0 -2 -79 -4 -176 -4 l-176 0 6 68 c8 82 16 122
23 122 3 0 77 -41 164 -91z m-333 -76 l1 -148 -59 -115 c-77 -152 -90 -200
-90 -327 l0 -104 -146 3 c-122 3 -149 6 -157 19 -8 12 17 113 97 395 58 209
111 389 116 402 9 21 15 22 123 22 l114 0 1 -147z"/>
</g>
</svg>
