<?xml version="1.0" standalone="no"?>
<!DOCTYPE svg PUBLIC "-//W3C//DTD SVG 20010904//EN"
 "http://www.w3.org/TR/2001/REC-SVG-20010904/DTD/svg10.dtd">
<svg version="1.0" xmlns="http://www.w3.org/2000/svg"
 width="512.000000pt" height="512.000000pt" viewBox="0 0 512.000000 512.000000"
 preserveAspectRatio="xMidYMid meet">

<g transform="translate(0.000000,512.000000) scale(0.100000,-0.100000)"
fill="#ffffff" stroke="none">
<path d="M4614 5110 c-33 -13 -54 -50 -54 -92 0 -30 8 -47 37 -79 l37 -40
-324 -324 -324 -324 -53 49 c-102 93 -247 120 -378 70 -56 -21 -87 -49 -485
-445 l-425 -423 -110 -22 c-60 -12 -121 -28 -135 -35 -22 -12 -300 -289 -930
-928 l-195 -197 -6 -188 -6 -187 -90 -190 -89 -190 -96 -5 c-77 -4 -100 -9
-118 -25 -19 -17 -592 -729 -687 -853 -42 -56 -44 -100 -5 -141 27 -30 803
-516 852 -534 33 -13 74 -3 99 24 10 11 53 104 95 205 85 205 88 224 34 269
-36 30 -85 33 -120 6 -15 -13 -43 -64 -73 -138 -27 -65 -50 -120 -51 -121 -1
-2 -117 67 -256 154 -139 86 -277 171 -305 188 -29 17 -53 33 -53 36 0 3 131
168 290 368 l290 362 100 0 c88 0 102 2 124 22 15 13 61 98 105 193 44 93 83
171 88 172 5 2 45 -34 90 -79 l82 -83 -61 -145 c-36 -85 -62 -160 -62 -182 -1
-70 77 -117 141 -85 33 17 38 27 92 157 l40 95 45 5 c36 5 55 15 87 45 l41 40
52 -56 c98 -105 174 -237 229 -400 29 -84 36 -96 68 -113 l37 -20 163 43 c241
64 283 78 306 103 36 40 35 65 -7 191 -74 220 -193 425 -350 605 l-81 93 89
97 c50 53 103 110 120 125 l29 28 112 -76 c344 -232 785 -349 1190 -316 75 6
190 22 256 36 106 21 123 28 148 55 16 18 27 42 27 60 0 16 -34 154 -75 307
-69 255 -77 280 -106 307 -35 31 -28 31 -199 1 -251 -45 -566 15 -774 149
l-59 37 31 32 c50 54 66 109 42 147 -7 12 92 116 465 490 324 324 479 487 489
512 9 21 16 61 16 90 l0 53 430 430 c407 407 430 432 430 466 0 42 -30 86 -68
100 -30 12 -82 -3 -107 -31 -18 -20 -19 -19 -61 20 -45 41 -75 48 -120 30z
m-845 -935 c14 -7 53 -41 86 -74 l60 -61 -248 -248 -247 -247 -112 113 -113
112 195 196 c117 118 211 204 235 215 44 21 97 19 144 -6z m-596 -663 l107
-107 -135 -135 c-74 -74 -136 -132 -138 -130 -8 10 -164 236 -172 249 -5 9 26
46 101 122 60 60 113 109 119 109 6 0 59 -48 118 -108z m-385 -407 c73 -104
131 -192 130 -196 -2 -4 -262 -284 -579 -622 l-577 -615 -73 74 -74 74 367
368 c201 202 371 377 377 389 27 52 16 71 -109 197 l-120 122 188 186 187 186
65 15 c36 8 70 14 75 13 6 -1 70 -88 143 -191z m-728 -420 l65 -65 -325 -325
c-179 -179 -327 -325 -330 -325 -3 0 -4 60 -2 132 l3 133 257 258 c141 141
259 257 262 257 3 0 35 -29 70 -65z m922 -99 c132 -83 293 -151 452 -188 72
-17 126 -21 256 -22 91 -1 190 2 221 6 l56 8 45 -168 c32 -118 42 -169 34
-174 -6 -3 -47 -11 -91 -17 -356 -45 -669 4 -980 154 -109 52 -285 162 -285
177 0 7 230 258 237 258 1 0 26 -15 55 -34z m-742 -851 c77 -86 135 -167 191
-264 51 -89 121 -253 111 -262 -8 -8 -156 -49 -175 -49 -6 0 -34 47 -61 105
-58 125 -121 223 -209 325 l-64 75 65 73 c36 40 69 71 73 70 4 -2 35 -34 69
-73z"/>
<path d="M1343 943 c-12 -2 -34 -18 -49 -36 -22 -26 -25 -38 -21 -71 16 -116
178 -116 194 0 5 36 1 45 -23 72 -30 31 -62 42 -101 35z"/>
</g>
</svg>
